<svg xmlns="http://www.w3.org/2000/svg" xmlns:xlink="http://www.w3.org/1999/xlink" id="processonSvg1000" viewBox="73.0 29.903363740022805 525.25 759.0966362599772" width="525.25" height="759.0966362599772"><defs id="ProcessOnDefs1001"><marker id="ProcessOnMarker1012" markerUnits="userSpaceOnUse" orient="auto" markerWidth="16.23606797749979" markerHeight="10.550836550532098" viewBox="-1.0 -1.3763819204711736 16.23606797749979 10.550836550532098" refX="-1.0" refY="3.8990363547948754"><path id="ProcessOnPath1013" d="M12.0 3.8990363547948754L0.0 7.798072709589751V0.0Z" stroke="#323232" stroke-width="2.0" fill="#323232" transform="matrix(1.0,0.0,0.0,1.0,0.0,0.0)"/></marker><marker id="ProcessOnMarker1020" markerUnits="userSpaceOnUse" orient="auto" markerWidth="16.23606797749979" markerHeight="10.550836550532098" viewBox="-1.0 -1.3763819204711736 16.23606797749979 10.550836550532098" refX="-1.0" refY="3.8990363547948754"><path id="ProcessOnPath1021" d="M12.0 3.8990363547948754L0.0 7.798072709589751V0.0Z" stroke="#323232" stroke-width="2.0" fill="#323232" transform="matrix(1.0,0.0,0.0,1.0,0.0,0.0)"/></marker><marker id="ProcessOnMarker1034" markerUnits="userSpaceOnUse" orient="auto" markerWidth="16.23606797749979" markerHeight="10.550836550532098" viewBox="-1.0 -1.3763819204711736 16.23606797749979 10.550836550532098" refX="-1.0" refY="3.8990363547948754"><path id="ProcessOnPath1035" d="M12.0 3.8990363547948754L0.0 7.798072709589751V0.0Z" stroke="#323232" stroke-width="2.0" fill="#323232" transform="matrix(1.0,0.0,0.0,1.0,0.0,0.0)"/></marker><marker id="ProcessOnMarker1043" markerUnits="userSpaceOnUse" orient="auto" markerWidth="16.23606797749979" markerHeight="10.550836550532098" viewBox="-1.0 -1.3763819204711736 16.23606797749979 10.550836550532098" refX="-1.0" refY="3.8990363547948754"><path id="ProcessOnPath1044" d="M12.0 3.8990363547948754L0.0 7.798072709589751V0.0Z" stroke="#323232" stroke-width="2.0" fill="#323232" transform="matrix(1.0,0.0,0.0,1.0,0.0,0.0)"/></marker><marker id="ProcessOnMarker1052" markerUnits="userSpaceOnUse" orient="auto" markerWidth="16.23606797749979" markerHeight="10.550836550532098" viewBox="-1.0 -1.3763819204711736 16.23606797749979 10.550836550532098" refX="-1.0" refY="3.8990363547948754"><path id="ProcessOnPath1053" d="M12.0 3.8990363547948754L0.0 7.798072709589751V0.0Z" stroke="#323232" stroke-width="2.0" fill="#323232" transform="matrix(1.0,0.0,0.0,1.0,0.0,0.0)"/></marker></defs><g id="ProcessOnG1002"><path id="ProcessOnPath1003" d="M73.0 29.903363740022805H598.25V789.0H73.0V29.90336374002277Z" fill="none"/><g id="ProcessOnG1004"><g id="ProcessOnG1005" transform="matrix(1.0,0.0,0.0,1.0,296.6490963855422,127.03534777651083)" opacity="1.0"><path id="ProcessOnPath1006" d="M18.7305207145572 0.0L77.95180722891567 0.0L59.22128651435847 56.191562143671604L0.0 56.191562143671604L18.7305207145572 0.0Z" stroke="#323232" stroke-width="2.0" stroke-dasharray="none" fill="#c0d4a3"/><g id="ProcessOnG1007" transform="matrix(1.0,0.0,0.0,1.0,11.69277108433735,11.845781071835802)"><text id="ProcessOnText1008" fill="#323232" font-size="13" x="26.283132530120483" y="13.325" font-family="Arial" font-weight="bold" font-style="normal" text-decoration="none" family="Arial" text-anchor="middle" size="13">xml配置文</text><text id="ProcessOnText1009" fill="#323232" font-size="13" x="26.283132530120483" y="29.575" font-family="Arial" font-weight="bold" font-style="normal" text-decoration="none" family="Arial" text-anchor="middle" size="13">件</text></g></g><g id="ProcessOnG1010"><path id="ProcessOnPath1011" d="M335.625 183.22690992018244L335.625 205.70353477765104L335.625 205.70353477765104L335.625 212.9440916576199" stroke="#323232" stroke-width="2.0" stroke-dasharray="none" fill="none" marker-end="url(#ProcessOnMarker1012)"/></g><g id="ProcessOnG1014" transform="matrix(1.0,0.0,0.0,1.0,104.10813253012049,228.1801596351197)" opacity="1.0"><path id="ProcessOnPath1015" d="M0.0 0.0L463.03373493975903 0.0L463.03373493975903 39.33409350057013L0.0 39.33409350057013Z" stroke="#323232" stroke-width="2.0" stroke-dasharray="none" fill="#c0d4a3"/><g id="ProcessOnG1016" transform="matrix(1.0,0.0,0.0,1.0,10.0,11.542046750285063)"><text id="ProcessOnText1017" fill="#323232" font-size="13" x="220.51686746987951" y="13.325" font-family="Arial" font-weight="bold" font-style="normal" text-decoration="none" family="Arial" text-anchor="middle" size="13">XMLConfigBuilder类的parse方法(解析mybati配置文件)</text></g></g><g id="ProcessOnG1018"><path id="ProcessOnPath1019" d="M335.625 267.51425313568984L335.625 301.2291904218928L335.625 301.2291904218928L335.625 319.70805973059595" stroke="#323232" stroke-width="2.0" stroke-dasharray="none" fill="none" marker-end="url(#ProcessOnMarker1020)"/></g><g id="ProcessOnG1022" transform="matrix(1.0,0.0,0.0,1.0,93.0,334.9441277080957)" opacity="1.0"><path id="ProcessOnPath1023" d="M0.0 0.0L485.25 0.0L485.25 56.191562143671604L0.0 56.191562143671604Z" stroke="#323232" stroke-width="2.0" stroke-dasharray="none" fill="#c0d4a3"/><g id="ProcessOnG1024" transform="matrix(1.0,0.0,0.0,1.0,10.0,11.845781071835802)"><text id="ProcessOnText1025" fill="#323232" font-size="13" x="231.625" y="13.325" font-family="Arial" font-weight="bold" font-style="normal" text-decoration="none" family="Arial" text-anchor="middle" size="13">XMLMapperBuilder类的parse()-&gt;configurationElement()-&gt;buildStatementFromCon</text><text id="ProcessOnText1026" fill="#323232" font-size="13" x="231.625" y="29.575" font-family="Arial" font-weight="bold" font-style="normal" text-decoration="none" family="Arial" text-anchor="middle" size="13">text()</text></g></g><g id="ProcessOnG1027" transform="matrix(1.0,0.0,0.0,1.0,168.80813253012047,58.0)" opacity="1.0"><path id="ProcessOnPath1028" d="M0.0 0.0L360.91686746987955 0.0L360.91686746987955 31.30672748004561L0.0 31.30672748004561Z" stroke="none" stroke-width="0.0" stroke-dasharray="none" fill="none"/><g id="ProcessOnG1029" transform="matrix(1.0,0.0,0.0,1.0,0.0,-8.096636259977195)"><text id="ProcessOnText1030" fill="#323232" font-size="19" x="179.45843373493977" y="19.475" font-family="微软雅黑" font-weight="bold" font-style="normal" text-decoration="none" family="微软雅黑" text-anchor="middle" size="19">注册MappedStatement到Configuration</text><text id="ProcessOnText1031" fill="#323232" font-size="19" x="179.45843373493977" y="43.225" font-family="微软雅黑" font-weight="bold" font-style="normal" text-decoration="none" family="微软雅黑" text-anchor="middle" size="19">的过程</text></g></g><g id="ProcessOnG1032"><path id="ProcessOnPath1033" d="M335.625 391.1356898517673L335.625 424.4492588369442L335.625 424.4492588369442L335.625 442.52675984462115" stroke="#323232" stroke-width="2.0" stroke-dasharray="none" fill="none" marker-end="url(#ProcessOnMarker1034)"/></g><g id="ProcessOnG1036" transform="matrix(1.0,0.0,0.0,1.0,201.84021084337348,457.7628278221209)" opacity="1.0"><path id="ProcessOnPath1037" d="M0.0 0.0L267.56957831325303 0.0L267.56957831325303 63.41619156214367L0.0 63.41619156214367Z" stroke="#323232" stroke-width="2.0" stroke-dasharray="none" fill="#c0d4a3"/><g id="ProcessOnG1038" transform="matrix(1.0,0.0,0.0,1.0,10.0,15.458095781071837)"><text id="ProcessOnText1039" fill="#323232" font-size="13" x="122.78478915662652" y="13.325" font-family="Arial" font-weight="bold" font-style="normal" text-decoration="none" family="Arial" text-anchor="middle" size="13">XMLStatementBuilder类的parseStatement</text><text id="ProcessOnText1040" fill="#323232" font-size="13" x="122.78478915662652" y="29.575" font-family="Arial" font-weight="bold" font-style="normal" text-decoration="none" family="Arial" text-anchor="middle" size="13">Node()</text></g></g><g id="ProcessOnG1041"><path id="ProcessOnPath1042" d="M335.625 521.1790193842646L335.625 555.0912200684152L335.62500000000006 555.0912200684152L335.62500000000006 573.7673527750658" stroke="#323232" stroke-width="2.0" stroke-dasharray="none" fill="none" marker-end="url(#ProcessOnMarker1043)"/></g><g id="ProcessOnG1045" transform="matrix(1.0,0.0,0.0,1.0,237.83569277108433,589.0034207525656)" opacity="1.0"><path id="ProcessOnPath1046" d="M0.0 0.0L195.57861445783135 0.0L195.57861445783135 46.9965792474344L0.0 46.9965792474344Z" stroke="#323232" stroke-width="2.0" stroke-dasharray="none" fill="#c0d4a3"/><g id="ProcessOnG1047" transform="matrix(1.0,0.0,0.0,1.0,10.0,7.2482896237171985)"><text id="ProcessOnText1048" fill="#323232" font-size="13" x="86.78930722891567" y="13.325" font-family="Arial" font-weight="bold" font-style="normal" text-decoration="none" family="Arial" text-anchor="middle" size="13">MapperBuilderAssistant类的ad</text><text id="ProcessOnText1049" fill="#323232" font-size="13" x="86.78930722891567" y="29.575" font-family="Arial" font-weight="bold" font-style="normal" text-decoration="none" family="Arial" text-anchor="middle" size="13">dMappedStatement（)</text></g></g><g id="ProcessOnG1050"><path id="ProcessOnPath1051" d="M335.62500000000006 636.0L335.62500000000006 671.2987457240592L335.625 671.2987457240592L335.625 691.3614234706188" stroke="#323232" stroke-width="2.0" stroke-dasharray="none" fill="none" marker-end="url(#ProcessOnMarker1052)"/></g><g id="ProcessOnG1054" transform="matrix(1.0,0.0,0.0,1.0,250.6308734939759,706.5974914481186)" opacity="1.0"><path id="ProcessOnPath1055" d="M0.0 0.0L169.98825301204818 0.0L169.98825301204818 62.4025085518814L0.0 62.4025085518814Z" stroke="#323232" stroke-width="2.0" stroke-dasharray="none" fill="#c0d4a3"/><g id="ProcessOnG1056" transform="matrix(1.0,0.0,0.0,1.0,10.0,14.951254275940698)"><text id="ProcessOnText1057" fill="#323232" font-size="13" x="73.99412650602409" y="13.325" font-family="Arial" font-weight="bold" font-style="normal" text-decoration="none" family="Arial" text-anchor="middle" size="13">Configuration类的addMap</text><text id="ProcessOnText1058" fill="#323232" font-size="13" x="73.99412650602409" y="29.575" font-family="Arial" font-weight="bold" font-style="normal" text-decoration="none" family="Arial" text-anchor="middle" size="13">pedStatement()</text></g></g></g></g></svg>