<svg xmlns="http://www.w3.org/2000/svg" xmlns:xlink="http://www.w3.org/1999/xlink" id="processonSvg1000" viewBox="164.20255290560965 6.0 378.79744709439035 903.0" width="378.79744709439035" height="903.0"><defs id="ProcessOnDefs1001"><marker id="ProcessOnMarker1016" markerUnits="userSpaceOnUse" orient="auto" markerWidth="16.23606797749979" markerHeight="10.550836550532098" viewBox="-1.0 -1.3763819204711736 16.23606797749979 10.550836550532098" refX="-1.0" refY="3.8990363547948754"><path id="ProcessOnPath1017" d="M12.0 3.8990363547948754L0.0 7.798072709589751V0.0Z" stroke="#323232" stroke-width="2.0" fill="#323232" transform="matrix(1.0,0.0,0.0,1.0,0.0,0.0)"/></marker><marker id="ProcessOnMarker1024" markerUnits="userSpaceOnUse" orient="auto" markerWidth="16.23606797749979" markerHeight="10.550836550532098" viewBox="-1.0 -1.3763819204711736 16.23606797749979 10.550836550532098" refX="-1.0" refY="3.8990363547948754"><path id="ProcessOnPath1025" d="M12.0 3.8990363547948754L0.0 7.798072709589751V0.0Z" stroke="#323232" stroke-width="2.0" fill="#323232" transform="matrix(1.0,0.0,0.0,1.0,0.0,0.0)"/></marker><marker id="ProcessOnMarker1032" markerUnits="userSpaceOnUse" orient="auto" markerWidth="16.23606797749979" markerHeight="10.550836550532098" viewBox="-1.0 -1.3763819204711736 16.23606797749979 10.550836550532098" refX="-1.0" refY="3.8990363547948754"><path id="ProcessOnPath1033" d="M12.0 3.8990363547948754L0.0 7.798072709589751V0.0Z" stroke="#323232" stroke-width="2.0" fill="#323232" transform="matrix(1.0,0.0,0.0,1.0,0.0,0.0)"/></marker><marker id="ProcessOnMarker1040" markerUnits="userSpaceOnUse" orient="auto" markerWidth="16.23606797749979" markerHeight="10.550836550532098" viewBox="-1.0 -1.3763819204711736 16.23606797749979 10.550836550532098" refX="-1.0" refY="3.8990363547948754"><path id="ProcessOnPath1041" d="M12.0 3.8990363547948754L0.0 7.798072709589751V0.0Z" stroke="#323232" stroke-width="2.0" fill="#323232" transform="matrix(1.0,0.0,0.0,1.0,0.0,0.0)"/></marker><marker id="ProcessOnMarker1048" markerUnits="userSpaceOnUse" orient="auto" markerWidth="16.23606797749979" markerHeight="10.550836550532098" viewBox="-1.0 -1.3763819204711736 16.23606797749979 10.550836550532098" refX="-1.0" refY="3.8990363547948754"><path id="ProcessOnPath1049" d="M12.0 3.8990363547948754L0.0 7.798072709589751V0.0Z" stroke="#323232" stroke-width="2.0" fill="#323232" transform="matrix(1.0,0.0,0.0,1.0,0.0,0.0)"/></marker><marker id="ProcessOnMarker1056" markerUnits="userSpaceOnUse" orient="auto" markerWidth="16.23606797749979" markerHeight="10.550836550532098" viewBox="-1.0 -1.3763819204711736 16.23606797749979 10.550836550532098" refX="-1.0" refY="3.8990363547948754"><path id="ProcessOnPath1057" d="M12.0 3.8990363547948754L0.0 7.798072709589751V0.0Z" stroke="#323232" stroke-width="2.0" fill="#323232" transform="matrix(1.0,0.0,0.0,1.0,0.0,0.0)"/></marker></defs><g id="ProcessOnG1002"><path id="ProcessOnPath1003" d="M164.20255290560965 6.0H543.0V909.0H164.20255290560965V6.0Z" fill="none"/><g id="ProcessOnG1004"><g id="ProcessOnG1005" transform="matrix(1.0,0.0,0.0,1.0,219.79005710446756,26.0)" opacity="1.0"><path id="ProcessOnPath1006" d="M0.0 0.0L303.20994289553244 0.0L303.20994289553244 61.51362683438155L0.0 61.51362683438155Z" stroke="none" stroke-width="0.0" stroke-dasharray="none" fill="none"/><g id="ProcessOnG1007" transform="matrix(1.0,0.0,0.0,1.0,0.0,5.756813417190774)"><text id="ProcessOnText1008" fill="#323232" font-size="20" x="150.60497144776622" y="20.5" font-family="微软雅黑" font-weight="bold" font-style="normal" text-decoration="none" family="微软雅黑" text-anchor="middle" size="20">取出Configuration中的Mapped</text><text id="ProcessOnText1009" fill="#323232" font-size="20" x="150.60497144776622" y="45.5" font-family="微软雅黑" font-weight="bold" font-style="normal" text-decoration="none" family="微软雅黑" text-anchor="middle" size="20">Statement执行的过程</text></g></g><g id="ProcessOnG1010" transform="matrix(1.0,0.0,0.0,1.0,243.58851192475646,108.31970649895177)" opacity="1.0"><path id="ProcessOnPath1011" d="M0.0 0.0L200.08330534094728 0.0L200.08330534094728 60.609014675052414L0.0 60.609014675052414Z" stroke="#323232" stroke-width="2.0" stroke-dasharray="none" fill="#c0d4a3"/><g id="ProcessOnG1012" transform="matrix(1.0,0.0,0.0,1.0,10.0,22.179507337526207)"><text id="ProcessOnText1013" fill="#323232" font-size="13" x="89.04165267047364" y="13.325" font-family="Arial" font-weight="bold" font-style="normal" text-decoration="none" family="Arial" text-anchor="middle" size="13">DefaultSqlSession=&gt;select()</text></g></g><g id="ProcessOnG1014"><path id="ProcessOnPath1015" d="M343.6301645952301 168.92872117400418L343.6301645952301 202.04245283018867L343.6301645952301 202.04245283018867L343.6301645952301 219.92011650887335" stroke="#323232" stroke-width="2.0" stroke-dasharray="none" fill="none" marker-end="url(#ProcessOnMarker1016)"/></g><g id="ProcessOnG1018" transform="matrix(1.0,0.0,0.0,1.0,184.20255290560965,235.15618448637315)" opacity="1.0"><path id="ProcessOnPath1019" d="M0.0 0.0L318.8552233792409 0.0L318.8552233792409 52.84381551362685L0.0 52.84381551362685Z" stroke="#323232" stroke-width="2.0" stroke-dasharray="none" fill="#c0d4a3"/><g id="ProcessOnG1020" transform="matrix(1.0,0.0,0.0,1.0,10.0,18.296907756813425)"><text id="ProcessOnText1021" fill="#323232" font-size="13" x="148.42761168962045" y="13.325" font-family="Arial" font-weight="bold" font-style="normal" text-decoration="none" family="Arial" text-anchor="middle" size="13">BaseExecutor=&gt;query()=&gt;queryFromDatabase()</text></g></g><g id="ProcessOnG1022"><path id="ProcessOnPath1023" d="M343.6301645952301 288.0L343.6301645952301 319.1163522012579L343.6301645952301 319.1163522012579L343.6301645952301 334.99663642501594" stroke="#323232" stroke-width="2.0" stroke-dasharray="none" fill="none" marker-end="url(#ProcessOnMarker1024)"/></g><g id="ProcessOnG1026" transform="matrix(1.0,0.0,0.0,1.0,245.79207255626469,350.2327044025157)" opacity="1.0"><path id="ProcessOnPath1027" d="M0.0 0.0L195.67618407793083 0.0L195.67618407793083 60.76729559748429L0.0 60.76729559748429Z" stroke="#323232" stroke-width="2.0" stroke-dasharray="none" fill="#c0d4a3"/><g id="ProcessOnG1028" transform="matrix(1.0,0.0,0.0,1.0,10.0,22.258647798742146)"><text id="ProcessOnText1029" fill="#323232" font-size="13" x="86.83809203896541" y="13.325" font-family="Arial" font-weight="bold" font-style="normal" text-decoration="none" family="Arial" text-anchor="middle" size="13">SimpleExecutor=&gt;doQuery()</text></g></g><g id="ProcessOnG1030"><path id="ProcessOnPath1031" d="M343.6301645952301 410.99999999999994L343.6301645952301 443.39150943396226L343.6301645952301 443.39150943396226L343.6301645952301 460.54695089042474" stroke="#323232" stroke-width="2.0" stroke-dasharray="none" fill="none" marker-end="url(#ProcessOnMarker1032)"/></g><g id="ProcessOnG1034" transform="matrix(1.0,0.0,0.0,1.0,208.1185757473967,475.7830188679245)" opacity="1.0"><path id="ProcessOnPath1035" d="M0.0 0.0L271.0231776956668 0.0L271.0231776956668 48.21698113207549L0.0 48.21698113207549Z" stroke="#323232" stroke-width="2.0" stroke-dasharray="none" fill="#c0d4a3"/><g id="ProcessOnG1036" transform="matrix(1.0,0.0,0.0,1.0,10.0,15.983490566037744)"><text id="ProcessOnText1037" fill="#323232" font-size="13" x="124.5115888478334" y="13.325" font-family="Arial" font-weight="bold" font-style="normal" text-decoration="none" family="Arial" text-anchor="middle" size="13">Configuration=&gt;newStatementHandler()</text></g></g><g id="ProcessOnG1038"><path id="ProcessOnPath1039" d="M343.6301645952301 524.0L343.6301645952301 552.3590146750524L343.6301645952301 552.3590146750524L343.6301645952301 565.481961372605" stroke="#323232" stroke-width="2.0" stroke-dasharray="none" fill="none" marker-end="url(#ProcessOnMarker1040)"/></g><g id="ProcessOnG1042" transform="matrix(1.0,0.0,0.0,1.0,219.13637890493789,580.7180293501049)" opacity="1.0"><path id="ProcessOnPath1043" d="M0.0 0.0L248.98757138058443 0.0L248.98757138058443 57.28197064989513L0.0 57.28197064989513Z" stroke="#323232" stroke-width="2.0" stroke-dasharray="none" fill="#c0d4a3"/><g id="ProcessOnG1044" transform="matrix(1.0,0.0,0.0,1.0,10.0,20.515985324947565)"><text id="ProcessOnText1045" fill="#323232" font-size="13" x="113.49378569029221" y="13.325" font-family="Arial" font-weight="bold" font-style="normal" text-decoration="none" family="Arial" text-anchor="middle" size="13">RoutingStatementHandler=&gt;query()</text></g></g><g id="ProcessOnG1046"><path id="ProcessOnPath1047" d="M343.6301645952301 638.0L343.6301645952301 671.6341719077568L343.6301645952301 671.6341719077568L343.6301645952301 690.0322758380138" stroke="#323232" stroke-width="2.0" stroke-dasharray="none" fill="none" marker-end="url(#ProcessOnMarker1048)"/></g><g id="ProcessOnG1050" transform="matrix(1.0,0.0,0.0,1.0,221.78065166274774,705.2683438155136)" opacity="1.0"><path id="ProcessOnPath1051" d="M0.0 0.0L243.6990258649647 0.0L243.6990258649647 63.73165618448638L0.0 63.73165618448638Z" stroke="#323232" stroke-width="2.0" stroke-dasharray="none" fill="#c0d4a3"/><g id="ProcessOnG1052" transform="matrix(1.0,0.0,0.0,1.0,10.0,23.74082809224319)"><text id="ProcessOnText1053" fill="#323232" font-size="13" x="110.84951293248236" y="13.325" font-family="Arial" font-weight="bold" font-style="normal" text-decoration="none" family="Arial" text-anchor="middle" size="13">SimpleStatementHandler=&gt;query()</text></g></g><g id="ProcessOnG1054"><path id="ProcessOnPath1055" d="M343.6301645952301 769.0L343.6301645952301 797.3385744234802L343.6301645952301 797.3385744234802L343.6301645952301 810.4410808694604" stroke="#323232" stroke-width="2.0" stroke-dasharray="none" fill="none" marker-end="url(#ProcessOnMarker1056)"/></g><g id="ProcessOnG1058" transform="matrix(1.0,0.0,0.0,1.0,251.3009741350353,825.6771488469602)" opacity="1.0"><path id="ProcessOnPath1059" d="M0.0 0.0L184.65838092038967 0.0L184.65838092038967 63.322851153039835L0.0 63.322851153039835Z" stroke="#323232" stroke-width="2.0" stroke-dasharray="none" fill="#c0d4a3"/><g id="ProcessOnG1060" transform="matrix(1.0,0.0,0.0,1.0,10.0,23.536425576519918)"><text id="ProcessOnText1061" fill="#323232" font-size="13" x="81.32919046019484" y="13.325" font-family="Arial" font-weight="bold" font-style="normal" text-decoration="none" family="Arial" text-anchor="middle" size="13">Statement=&gt;execute()</text></g></g></g></g></svg>