<svg xmlns="http://www.w3.org/2000/svg" xmlns:xlink="http://www.w3.org/1999/xlink" id="processonSvg1000" viewBox="27.0 27.0 987.75 891.0" width="987.75" height="891.0"><defs id="ProcessOnDefs1001"><marker id="ProcessOnMarker1023" markerUnits="userSpaceOnUse" orient="auto" markerWidth="16.23606797749979" markerHeight="10.550836550532098" viewBox="-1.0 -1.3763819204711736 16.23606797749979 10.550836550532098" refX="-1.0" refY="3.8990363547948754"><path id="ProcessOnPath1024" d="M12.0 3.8990363547948754L0.0 7.798072709589751V0.0Z" stroke="#323232" stroke-width="2.0" fill="#323232" transform="matrix(1.0,0.0,0.0,1.0,0.0,0.0)"/></marker><marker id="ProcessOnMarker1027" markerUnits="userSpaceOnUse" orient="auto" markerWidth="16.23606797749979" markerHeight="10.550836550532098" viewBox="-1.0 -1.3763819204711736 16.23606797749979 10.550836550532098" refX="-1.0" refY="3.8990363547948754"><path id="ProcessOnPath1028" d="M12.0 3.8990363547948754L0.0 7.798072709589751V0.0Z" stroke="#323232" stroke-width="2.0" fill="#323232" transform="matrix(1.0,0.0,0.0,1.0,0.0,0.0)"/></marker><marker id="ProcessOnMarker1031" markerUnits="userSpaceOnUse" orient="auto" markerWidth="16.23606797749979" markerHeight="10.550836550532098" viewBox="-1.0 -1.3763819204711736 16.23606797749979 10.550836550532098" refX="-1.0" refY="3.8990363547948754"><path id="ProcessOnPath1032" d="M12.0 3.8990363547948754L0.0 7.798072709589751V0.0Z" stroke="#323232" stroke-width="2.0" fill="#323232" transform="matrix(1.0,0.0,0.0,1.0,0.0,0.0)"/></marker><marker id="ProcessOnMarker1035" markerUnits="userSpaceOnUse" orient="auto" markerWidth="16.23606797749979" markerHeight="10.550836550532098" viewBox="-1.0 -1.3763819204711736 16.23606797749979 10.550836550532098" refX="-1.0" refY="3.8990363547948754"><path id="ProcessOnPath1036" d="M12.0 3.8990363547948754L0.0 7.798072709589751V0.0Z" stroke="#323232" stroke-width="2.0" fill="#323232" transform="matrix(1.0,0.0,0.0,1.0,0.0,0.0)"/></marker><marker id="ProcessOnMarker1060" markerUnits="userSpaceOnUse" orient="auto" markerWidth="16.23606797749979" markerHeight="10.550836550532098" viewBox="-1.0 -1.3763819204711736 16.23606797749979 10.550836550532098" refX="-1.0" refY="3.8990363547948754"><path id="ProcessOnPath1061" d="M12.0 3.8990363547948754L0.0 7.798072709589751V0.0Z" stroke="#323232" stroke-width="2.0" fill="#323232" transform="matrix(1.0,0.0,0.0,1.0,0.0,0.0)"/></marker><marker id="ProcessOnMarker1064" markerUnits="userSpaceOnUse" orient="auto" markerWidth="16.23606797749979" markerHeight="10.550836550532098" viewBox="-1.0 -1.3763819204711736 16.23606797749979 10.550836550532098" refX="-1.0" refY="3.8990363547948754"><path id="ProcessOnPath1065" d="M12.0 3.8990363547948754L0.0 7.798072709589751V0.0Z" stroke="#323232" stroke-width="2.0" fill="#323232" transform="matrix(1.0,0.0,0.0,1.0,0.0,0.0)"/></marker><marker id="ProcessOnMarker1068" markerUnits="userSpaceOnUse" orient="auto" markerWidth="16.23606797749979" markerHeight="10.550836550532098" viewBox="-1.0 -1.3763819204711736 16.23606797749979 10.550836550532098" refX="-1.0" refY="3.8990363547948754"><path id="ProcessOnPath1069" d="M12.0 3.8990363547948754L0.0 7.798072709589751V0.0Z" stroke="#323232" stroke-width="2.0" fill="#323232" transform="matrix(1.0,0.0,0.0,1.0,0.0,0.0)"/></marker><marker id="ProcessOnMarker1072" markerUnits="userSpaceOnUse" orient="auto" markerWidth="16.23606797749979" markerHeight="10.550836550532098" viewBox="-1.0 -1.3763819204711736 16.23606797749979 10.550836550532098" refX="-1.0" refY="3.8990363547948754"><path id="ProcessOnPath1073" d="M12.0 3.8990363547948754L0.0 7.798072709589751V0.0Z" stroke="#323232" stroke-width="2.0" fill="#323232" transform="matrix(1.0,0.0,0.0,1.0,0.0,0.0)"/></marker><marker id="ProcessOnMarker1080" markerUnits="userSpaceOnUse" orient="auto" markerWidth="16.23606797749979" markerHeight="10.550836550532098" viewBox="-1.0 -1.3763819204711736 16.23606797749979 10.550836550532098" refX="-1.0" refY="3.8990363547948754"><path id="ProcessOnPath1081" d="M12.0 3.8990363547948754L0.0 7.798072709589751V0.0Z" stroke="#323232" stroke-width="2.0" fill="#323232" transform="matrix(1.0,0.0,0.0,1.0,0.0,0.0)"/></marker><marker id="ProcessOnMarker1096" markerUnits="userSpaceOnUse" orient="auto" markerWidth="16.23606797749979" markerHeight="10.550836550532098" viewBox="-1.0 -1.3763819204711736 16.23606797749979 10.550836550532098" refX="-1.0" refY="3.8990363547948754"><path id="ProcessOnPath1097" d="M12.0 3.8990363547948754L0.0 7.798072709589751V0.0Z" stroke="#323232" stroke-width="2.0" fill="#323232" transform="matrix(1.0,0.0,0.0,1.0,0.0,0.0)"/></marker><marker id="ProcessOnMarker1100" markerUnits="userSpaceOnUse" orient="auto" markerWidth="16.23606797749979" markerHeight="10.550836550532098" viewBox="-1.0 -1.3763819204711736 16.23606797749979 10.550836550532098" refX="-1.0" refY="3.8990363547948754"><path id="ProcessOnPath1101" d="M12.0 3.8990363547948754L0.0 7.798072709589751V0.0Z" stroke="#323232" stroke-width="2.0" fill="#323232" transform="matrix(1.0,0.0,0.0,1.0,0.0,0.0)"/></marker><marker id="ProcessOnMarker1104" markerUnits="userSpaceOnUse" orient="auto" markerWidth="16.23606797749979" markerHeight="10.550836550532098" viewBox="-1.0 -1.3763819204711736 16.23606797749979 10.550836550532098" refX="-1.0" refY="3.8990363547948754"><path id="ProcessOnPath1105" d="M12.0 3.8990363547948754L0.0 7.798072709589751V0.0Z" stroke="#323232" stroke-width="2.0" fill="#323232" transform="matrix(1.0,0.0,0.0,1.0,0.0,0.0)"/></marker><marker id="ProcessOnMarker1121" markerUnits="userSpaceOnUse" orient="auto" markerWidth="16.23606797749979" markerHeight="10.550836550532098" viewBox="-1.0 -1.3763819204711736 16.23606797749979 10.550836550532098" refX="-1.0" refY="3.8990363547948754"><path id="ProcessOnPath1122" d="M12.0 3.8990363547948754L0.0 7.798072709589751V0.0Z" stroke="#323232" stroke-width="2.0" fill="#323232" transform="matrix(1.0,0.0,0.0,1.0,0.0,0.0)"/></marker><marker id="ProcessOnMarker1125" markerUnits="userSpaceOnUse" orient="auto" markerWidth="16.23606797749979" markerHeight="10.550836550532098" viewBox="-1.0 -1.3763819204711736 16.23606797749979 10.550836550532098" refX="-1.0" refY="3.8990363547948754"><path id="ProcessOnPath1126" d="M12.0 3.8990363547948754L0.0 7.798072709589751V0.0Z" stroke="#323232" stroke-width="2.0" fill="#323232" transform="matrix(1.0,0.0,0.0,1.0,0.0,0.0)"/></marker></defs><g id="ProcessOnG1002"><path id="ProcessOnPath1003" d="M27.0 27.0H1014.75V918.0H27.0V27.0Z" fill="none"/><g id="ProcessOnG1004"><g id="ProcessOnG1005" transform="matrix(1.0,0.0,0.0,1.0,496.0,47.0)" opacity="1.0"><path id="ProcessOnPath1006" d="M0.0 0.0L128.0 0.0L128.0 69.0L0.0 69.0Z" stroke="#323232" stroke-width="2.0" stroke-dasharray="none" fill="#c0d4a3"/><g id="ProcessOnG1007" transform="matrix(1.0,0.0,0.0,1.0,10.0,26.375)"><text id="ProcessOnText1008" fill="#323232" font-size="13" x="53.0" y="13.325" font-family="Arial" font-weight="bold" font-style="normal" text-decoration="none" family="Arial" text-anchor="middle" size="13">ol.source.Source</text></g></g><g id="ProcessOnG1009" transform="matrix(1.0,0.0,0.0,1.0,85.0,183.0)" opacity="1.0"><path id="ProcessOnPath1010" d="M0.0 0.0L120.0 0.0L120.0 70.0L0.0 70.0Z" stroke="#323232" stroke-width="2.0" stroke-dasharray="none" fill="#c0d4a3"/><g id="ProcessOnG1011" transform="matrix(1.0,0.0,0.0,1.0,10.0,26.875)"><text id="ProcessOnText1012" fill="#323232" font-size="13" x="49.0" y="13.325" font-family="Arial" font-weight="bold" font-style="normal" text-decoration="none" family="Arial" text-anchor="middle" size="13">ol.source.Image</text></g></g><g id="ProcessOnG1013" transform="matrix(1.0,0.0,0.0,1.0,503.0,183.0)" opacity="1.0"><path id="ProcessOnPath1014" d="M0.0 0.0L114.0 0.0L114.0 70.0L0.0 70.0Z" stroke="#323232" stroke-width="2.0" stroke-dasharray="none" fill="#c0d4a3"/><g id="ProcessOnG1015" transform="matrix(1.0,0.0,0.0,1.0,10.0,26.875)"><text id="ProcessOnText1016" fill="#323232" font-size="13" x="46.0" y="13.325" font-family="Arial" font-weight="bold" font-style="normal" text-decoration="none" family="Arial" text-anchor="middle" size="13">ol.source.Tile</text></g></g><g id="ProcessOnG1017" transform="matrix(1.0,0.0,0.0,1.0,867.0,183.0)" opacity="1.0"><path id="ProcessOnPath1018" d="M0.0 0.0L123.0 0.0L123.0 70.0L0.0 70.0Z" stroke="#323232" stroke-width="2.0" stroke-dasharray="none" fill="#c0d4a3"/><g id="ProcessOnG1019" transform="matrix(1.0,0.0,0.0,1.0,10.0,26.875)"><text id="ProcessOnText1020" fill="#323232" font-size="13" x="50.5" y="13.325" font-family="Arial" font-weight="bold" font-style="normal" text-decoration="none" family="Arial" text-anchor="middle" size="13">ol.source.Vector</text></g></g><g id="ProcessOnG1021"><path id="ProcessOnPath1022" d="M560.0 116.0L560.0 149.5L560.0 149.5L560.0 167.7639320225002" stroke="#323232" stroke-width="2.0" stroke-dasharray="none" fill="none" marker-end="url(#ProcessOnMarker1023)"/></g><g id="ProcessOnG1025"><path id="ProcessOnPath1026" d="M560.0 116.0L560.0 149.5L145.0 149.5L145.0 167.7639320225002" stroke="#323232" stroke-width="2.0" stroke-dasharray="none" fill="none" marker-end="url(#ProcessOnMarker1027)"/></g><g id="ProcessOnG1029"><path id="ProcessOnPath1030" d="M560.0 116.0L560.0 149.5L928.5 149.5L928.5 167.7639320225002" stroke="#323232" stroke-width="2.0" stroke-dasharray="none" fill="none" marker-end="url(#ProcessOnMarker1031)"/></g><g id="ProcessOnG1033"><path id="ProcessOnPath1034" d="M145.0 253.0L145.0 281.5L145.0 281.5L145.0 294.7639320225002" stroke="#323232" stroke-width="2.0" stroke-dasharray="none" fill="none" marker-end="url(#ProcessOnMarker1035)"/></g><g id="ProcessOnG1037" transform="matrix(1.0,0.0,0.0,1.0,47.0,310.0)" opacity="1.0"><path id="ProcessOnPath1038" d="M0.0 0.0L196.0 0.0L196.0 136.0L0.0 136.0Z" stroke="#323232" stroke-width="2.0" stroke-dasharray="none" fill="#c0d4a3"/><g id="ProcessOnG1039" transform="matrix(1.0,0.0,0.0,1.0,10.0,19.25)"><text id="ProcessOnText1040" fill="#323232" font-size="13" x="87.0" y="13.325" font-family="Arial" font-weight="bold" font-style="normal" text-decoration="none" family="Arial" text-anchor="middle" size="13">ol.source.ImageArcGISRest</text><text id="ProcessOnText1041" fill="#323232" font-size="13" x="87.0" y="29.575" font-family="Arial" font-weight="bold" font-style="normal" text-decoration="none" family="Arial" text-anchor="middle" size="13">ol.source.ImageCanvas</text><text id="ProcessOnText1042" fill="#323232" font-size="13" x="87.0" y="45.825" font-family="Arial" font-weight="bold" font-style="normal" text-decoration="none" family="Arial" text-anchor="middle" size="13">ol.source.ImageMapGuide</text><text id="ProcessOnText1043" fill="#323232" font-size="13" x="87.0" y="62.075" font-family="Arial" font-weight="bold" font-style="normal" text-decoration="none" family="Arial" text-anchor="middle" size="13">ol.source.ImageStatic</text><text id="ProcessOnText1044" fill="#323232" font-size="13" x="87.0" y="78.325" font-family="Arial" font-weight="bold" font-style="normal" text-decoration="none" family="Arial" text-anchor="middle" size="13">ol.source.ImageWMS</text><text id="ProcessOnText1045" fill="#323232" font-size="13" x="87.0" y="94.575" font-family="Arial" font-weight="bold" font-style="normal" text-decoration="none" family="Arial" text-anchor="middle" size="13">ol.source.Raster</text></g></g><g id="ProcessOnG1046" transform="matrix(1.0,0.0,0.0,1.0,286.0,309.0)" opacity="1.0"><path id="ProcessOnPath1047" d="M0.0 0.0L146.0 0.0L146.0 70.0L0.0 70.0Z" stroke="#323232" stroke-width="2.0" stroke-dasharray="none" fill="#c0d4a3"/><g id="ProcessOnG1048" transform="matrix(1.0,0.0,0.0,1.0,10.0,26.875)"><text id="ProcessOnText1049" fill="#323232" font-size="13" x="62.0" y="13.325" font-family="Arial" font-weight="bold" font-style="normal" text-decoration="none" family="Arial" text-anchor="middle" size="13">ol.source.TileDebug</text></g></g><g id="ProcessOnG1050" transform="matrix(1.0,0.0,0.0,1.0,495.0,309.0)" opacity="1.0"><path id="ProcessOnPath1051" d="M0.0 0.0L130.0 0.0L130.0 70.0L0.0 70.0Z" stroke="#323232" stroke-width="2.0" stroke-dasharray="none" fill="#c0d4a3"/><g id="ProcessOnG1052" transform="matrix(1.0,0.0,0.0,1.0,10.0,26.875)"><text id="ProcessOnText1053" fill="#323232" font-size="13" x="54.0" y="13.325" font-family="Arial" font-weight="bold" font-style="normal" text-decoration="none" family="Arial" text-anchor="middle" size="13">ol.source.UrlTile</text></g></g><g id="ProcessOnG1054" transform="matrix(1.0,0.0,0.0,1.0,667.0,309.0)" opacity="1.0"><path id="ProcessOnPath1055" d="M0.0 0.0L155.0 0.0L155.0 66.0L0.0 66.0Z" stroke="#323232" stroke-width="2.0" stroke-dasharray="none" fill="#c0d4a3"/><g id="ProcessOnG1056" transform="matrix(1.0,0.0,0.0,1.0,10.0,24.875)"><text id="ProcessOnText1057" fill="#323232" font-size="13" x="66.5" y="13.325" font-family="Arial" font-weight="bold" font-style="normal" text-decoration="none" family="Arial" text-anchor="middle" size="13">ol.source.TileUTFGrid</text></g></g><g id="ProcessOnG1058"><path id="ProcessOnPath1059" d="M560.0 253.0L560.0 281.0L359.0 281.0L359.0 293.7639320225002" stroke="#323232" stroke-width="2.0" stroke-dasharray="none" fill="none" marker-end="url(#ProcessOnMarker1060)"/></g><g id="ProcessOnG1062"><path id="ProcessOnPath1063" d="M560.0 253.0L560.0 281.0L560.0 281.0L560.0 293.7639320225002" stroke="#323232" stroke-width="2.0" stroke-dasharray="none" fill="none" marker-end="url(#ProcessOnMarker1064)"/></g><g id="ProcessOnG1066"><path id="ProcessOnPath1067" d="M560.0 253.0L560.0 281.0L744.5 281.0L744.5 293.7639320225002" stroke="#323232" stroke-width="2.0" stroke-dasharray="none" fill="none" marker-end="url(#ProcessOnMarker1068)"/></g><g id="ProcessOnG1070"><path id="ProcessOnPath1071" d="M928.5 253.0L928.5 281.0L928.5 281.0L928.5 293.7639320225002" stroke="#323232" stroke-width="2.0" stroke-dasharray="none" fill="none" marker-end="url(#ProcessOnMarker1072)"/></g><g id="ProcessOnG1074" transform="matrix(1.0,0.0,0.0,1.0,862.25,309.0)" opacity="1.0"><path id="ProcessOnPath1075" d="M0.0 0.0L132.5 0.0L132.5 66.0L0.0 66.0Z" stroke="#323232" stroke-width="2.0" stroke-dasharray="none" fill="#c0d4a3"/><g id="ProcessOnG1076" transform="matrix(1.0,0.0,0.0,1.0,10.0,24.875)"><text id="ProcessOnText1077" fill="#323232" font-size="13" x="55.25" y="13.325" font-family="Arial" font-weight="bold" font-style="normal" text-decoration="none" family="Arial" text-anchor="middle" size="13">ol.source.Cluster</text></g></g><g id="ProcessOnG1078"><path id="ProcessOnPath1079" d="M560.0 379.0L560.0 411.0L560.0 411.0L560.0 427.7639320225002" stroke="#323232" stroke-width="2.0" stroke-dasharray="none" fill="none" marker-end="url(#ProcessOnMarker1080)"/></g><g id="ProcessOnG1082" transform="matrix(1.0,0.0,0.0,1.0,495.5,443.0)" opacity="1.0"><path id="ProcessOnPath1083" d="M0.0 0.0L129.0 0.0L129.0 71.0L0.0 71.0Z" stroke="#323232" stroke-width="2.0" stroke-dasharray="none" fill="#c0d4a3"/><g id="ProcessOnG1084" transform="matrix(1.0,0.0,0.0,1.0,10.0,27.375)"><text id="ProcessOnText1085" fill="#323232" font-size="13" x="53.5" y="13.325" font-family="Arial" font-weight="bold" font-style="normal" text-decoration="none" family="Arial" text-anchor="middle" size="13">ol.source.UrlTile</text></g></g><g id="ProcessOnG1086" transform="matrix(1.0,0.0,0.0,1.0,349.0,578.0)" opacity="1.0"><path id="ProcessOnPath1087" d="M0.0 0.0L151.0 0.0L151.0 70.0L0.0 70.0Z" stroke="#323232" stroke-width="2.0" stroke-dasharray="none" fill="#c0d4a3"/><g id="ProcessOnG1088" transform="matrix(1.0,0.0,0.0,1.0,10.0,26.875)"><text id="ProcessOnText1089" fill="#323232" font-size="13" x="64.5" y="13.325" font-family="Arial" font-weight="bold" font-style="normal" text-decoration="none" family="Arial" text-anchor="middle" size="13">ol.source.TileImage</text></g></g><g id="ProcessOnG1090" transform="matrix(1.0,0.0,0.0,1.0,667.0,578.0)" opacity="1.0"><path id="ProcessOnPath1091" d="M0.0 0.0L146.0 0.0L146.0 64.0L0.0 64.0Z" stroke="#323232" stroke-width="2.0" stroke-dasharray="none" fill="#c0d4a3"/><g id="ProcessOnG1092" transform="matrix(1.0,0.0,0.0,1.0,10.0,23.875)"><text id="ProcessOnText1093" fill="#323232" font-size="13" x="62.0" y="13.325" font-family="Arial" font-weight="bold" font-style="normal" text-decoration="none" family="Arial" text-anchor="middle" size="13">ol.source.VectorTile</text></g></g><g id="ProcessOnG1094"><path id="ProcessOnPath1095" d="M560.0 514.0L560.0 546.0L424.5 546.0L424.5 562.7639320225002" stroke="#323232" stroke-width="2.0" stroke-dasharray="none" fill="none" marker-end="url(#ProcessOnMarker1096)"/></g><g id="ProcessOnG1098"><path id="ProcessOnPath1099" d="M560.0 514.0L560.0 546.0L740.0 546.0L740.0 562.7639320225002" stroke="#323232" stroke-width="2.0" stroke-dasharray="none" fill="none" marker-end="url(#ProcessOnMarker1100)"/></g><g id="ProcessOnG1102"><path id="ProcessOnPath1103" d="M424.5 648.0L424.5 680.5L249.25 680.5L249.25 697.7639320225002" stroke="#323232" stroke-width="2.0" stroke-dasharray="none" fill="none" marker-end="url(#ProcessOnMarker1104)"/></g><g id="ProcessOnG1106" transform="matrix(1.0,0.0,0.0,1.0,149.5,713.0)" opacity="1.0"><path id="ProcessOnPath1107" d="M0.0 0.0L199.5 0.0L199.5 133.0L0.0 133.0Z" stroke="#323232" stroke-width="2.0" stroke-dasharray="none" fill="#c0d4a3"/><g id="ProcessOnG1108" transform="matrix(1.0,0.0,0.0,1.0,10.0,17.75)"><text id="ProcessOnText1109" fill="#323232" font-size="13" x="88.75" y="13.325" font-family="Arial" font-weight="bold" font-style="normal" text-decoration="none" family="Arial" text-anchor="middle" size="13">ol.source.BingMaps</text><text id="ProcessOnText1110" fill="#323232" font-size="13" x="88.75" y="29.575" font-family="Arial" font-weight="bold" font-style="normal" text-decoration="none" family="Arial" text-anchor="middle" size="13">ol.source.TileArcGISRest</text><text id="ProcessOnText1111" fill="#323232" font-size="13" x="88.75" y="45.825" font-family="Arial" font-weight="bold" font-style="normal" text-decoration="none" family="Arial" text-anchor="middle" size="13">ol.source.TileJSON</text><text id="ProcessOnText1112" fill="#323232" font-size="13" x="88.75" y="62.075" font-family="Arial" font-weight="bold" font-style="normal" text-decoration="none" family="Arial" text-anchor="middle" size="13">ol.source.TileWMS</text><text id="ProcessOnText1113" fill="#323232" font-size="13" x="88.75" y="78.325" font-family="Arial" font-weight="bold" font-style="normal" text-decoration="none" family="Arial" text-anchor="middle" size="13">ol.source.WMTS</text><text id="ProcessOnText1114" fill="#323232" font-size="13" x="88.75" y="94.575" font-family="Arial" font-weight="bold" font-style="normal" text-decoration="none" family="Arial" text-anchor="middle" size="13">ol.source.Zoomify</text></g></g><g id="ProcessOnG1115" transform="matrix(1.0,0.0,0.0,1.0,483.0,713.0)" opacity="1.0"><path id="ProcessOnPath1116" d="M0.0 0.0L119.0 0.0L119.0 70.0L0.0 70.0Z" stroke="#323232" stroke-width="2.0" stroke-dasharray="none" fill="#c0d4a3"/><g id="ProcessOnG1117" transform="matrix(1.0,0.0,0.0,1.0,10.0,26.875)"><text id="ProcessOnText1118" fill="#323232" font-size="13" x="48.5" y="13.325" font-family="Arial" font-weight="bold" font-style="normal" text-decoration="none" family="Arial" text-anchor="middle" size="13">ol.source.XYZ</text></g></g><g id="ProcessOnG1119"><path id="ProcessOnPath1120" d="M424.5 648.0L424.5 680.5L542.5 680.5L542.5 697.7639320225002" stroke="#323232" stroke-width="2.0" stroke-dasharray="none" fill="none" marker-end="url(#ProcessOnMarker1121)"/></g><g id="ProcessOnG1123"><path id="ProcessOnPath1124" d="M542.5 783.0L542.5 805.0L542.5 805.0L542.5 811.7639320225002" stroke="#323232" stroke-width="2.0" stroke-dasharray="none" fill="none" marker-end="url(#ProcessOnMarker1125)"/></g><g id="ProcessOnG1127" transform="matrix(1.0,0.0,0.0,1.0,475.0,827.0)" opacity="1.0"><path id="ProcessOnPath1128" d="M0.0 0.0L135.0 0.0L135.0 71.0L0.0 71.0Z" stroke="#323232" stroke-width="2.0" stroke-dasharray="none" fill="#c0d4a3"/><g id="ProcessOnG1129" transform="matrix(1.0,0.0,0.0,1.0,10.0,11.125)"><text id="ProcessOnText1130" fill="#323232" font-size="13" x="56.5" y="13.325" font-family="Arial" font-weight="bold" font-style="normal" text-decoration="none" family="Arial" text-anchor="middle" size="13">ol.source.CartoDB</text><text id="ProcessOnText1131" fill="#323232" font-size="13" x="56.5" y="29.575" font-family="Arial" font-weight="bold" font-style="normal" text-decoration="none" family="Arial" text-anchor="middle" size="13">ol.source.OSM</text><text id="ProcessOnText1132" fill="#323232" font-size="13" x="56.5" y="45.825" font-family="Arial" font-weight="bold" font-style="normal" text-decoration="none" family="Arial" text-anchor="middle" size="13">ol.source.Stamen</text></g></g></g></g></svg>