<svg xmlns="http://www.w3.org/2000/svg" xmlns:xlink="http://www.w3.org/1999/xlink" id="processonSvg1000" viewBox="235.0 16.0 488.0 1693.0" width="488.0" height="1693.0"><defs id="ProcessOnDefs1001"><marker id="ProcessOnMarker1017" markerUnits="userSpaceOnUse" orient="auto" markerWidth="16.23606797749979" markerHeight="10.550836550532098" viewBox="-1.0 -1.3763819204711736 16.23606797749979 10.550836550532098" refX="-1.0" refY="3.8990363547948754"><path id="ProcessOnPath1018" d="M12.0 3.8990363547948754L0.0 7.798072709589751V0.0Z" stroke="#323232" stroke-width="2.0" fill="#323232" transform="matrix(1.0,0.0,0.0,1.0,0.0,0.0)"/></marker><marker id="ProcessOnMarker1021" markerUnits="userSpaceOnUse" orient="auto" markerWidth="16.23606797749979" markerHeight="10.550836550532098" viewBox="-1.0 -1.3763819204711736 16.23606797749979 10.550836550532098" refX="-1.0" refY="3.8990363547948754"><path id="ProcessOnPath1022" d="M12.0 3.8990363547948754L0.0 7.798072709589751V0.0Z" stroke="#323232" stroke-width="2.0" fill="#323232" transform="matrix(1.0,0.0,0.0,1.0,0.0,0.0)"/></marker><marker id="ProcessOnMarker1030" markerUnits="userSpaceOnUse" orient="auto" markerWidth="16.23606797749979" markerHeight="10.550836550532098" viewBox="-1.0 -1.3763819204711736 16.23606797749979 10.550836550532098" refX="-1.0" refY="3.8990363547948754"><path id="ProcessOnPath1031" d="M12.0 3.8990363547948754L0.0 7.798072709589751V0.0Z" stroke="#323232" stroke-width="2.0" fill="#323232" transform="matrix(1.0,0.0,0.0,1.0,0.0,0.0)"/></marker><marker id="ProcessOnMarker1039" markerUnits="userSpaceOnUse" orient="auto" markerWidth="16.23606797749979" markerHeight="10.550836550532098" viewBox="-1.0 -1.3763819204711736 16.23606797749979 10.550836550532098" refX="-1.0" refY="3.8990363547948754"><path id="ProcessOnPath1040" d="M12.0 3.8990363547948754L0.0 7.798072709589751V0.0Z" stroke="#323232" stroke-width="2.0" fill="#323232" transform="matrix(1.0,0.0,0.0,1.0,0.0,0.0)"/></marker><marker id="ProcessOnMarker1048" markerUnits="userSpaceOnUse" orient="auto" markerWidth="16.23606797749979" markerHeight="10.550836550532098" viewBox="-1.0 -1.3763819204711736 16.23606797749979 10.550836550532098" refX="-1.0" refY="3.8990363547948754"><path id="ProcessOnPath1049" d="M12.0 3.8990363547948754L0.0 7.798072709589751V0.0Z" stroke="#323232" stroke-width="2.0" fill="#323232" transform="matrix(1.0,0.0,0.0,1.0,0.0,0.0)"/></marker><marker id="ProcessOnMarker1057" markerUnits="userSpaceOnUse" orient="auto" markerWidth="16.23606797749979" markerHeight="10.550836550532098" viewBox="-1.0 -1.3763819204711736 16.23606797749979 10.550836550532098" refX="-1.0" refY="3.8990363547948754"><path id="ProcessOnPath1058" d="M12.0 3.8990363547948754L0.0 7.798072709589751V0.0Z" stroke="#323232" stroke-width="2.0" fill="#323232" transform="matrix(1.0,0.0,0.0,1.0,0.0,0.0)"/></marker><marker id="ProcessOnMarker1066" markerUnits="userSpaceOnUse" orient="auto" markerWidth="16.23606797749979" markerHeight="10.550836550532098" viewBox="-1.0 -1.3763819204711736 16.23606797749979 10.550836550532098" refX="-1.0" refY="3.8990363547948754"><path id="ProcessOnPath1067" d="M12.0 3.8990363547948754L0.0 7.798072709589751V0.0Z" stroke="#323232" stroke-width="2.0" fill="#323232" transform="matrix(1.0,0.0,0.0,1.0,0.0,0.0)"/></marker><marker id="ProcessOnMarker1074" markerUnits="userSpaceOnUse" orient="auto" markerWidth="16.23606797749979" markerHeight="10.550836550532098" viewBox="-1.0 -1.3763819204711736 16.23606797749979 10.550836550532098" refX="-1.0" refY="3.8990363547948754"><path id="ProcessOnPath1075" d="M12.0 3.8990363547948754L0.0 7.798072709589751V0.0Z" stroke="#323232" stroke-width="2.0" fill="#323232" transform="matrix(1.0,0.0,0.0,1.0,0.0,0.0)"/></marker><marker id="ProcessOnMarker1083" markerUnits="userSpaceOnUse" orient="auto" markerWidth="16.23606797749979" markerHeight="10.550836550532098" viewBox="-1.0 -1.3763819204711736 16.23606797749979 10.550836550532098" refX="-1.0" refY="3.8990363547948754"><path id="ProcessOnPath1084" d="M12.0 3.8990363547948754L0.0 7.798072709589751V0.0Z" stroke="#323232" stroke-width="2.0" fill="#323232" transform="matrix(1.0,0.0,0.0,1.0,0.0,0.0)"/></marker><marker id="ProcessOnMarker1092" markerUnits="userSpaceOnUse" orient="auto" markerWidth="16.23606797749979" markerHeight="10.550836550532098" viewBox="-1.0 -1.3763819204711736 16.23606797749979 10.550836550532098" refX="-1.0" refY="3.8990363547948754"><path id="ProcessOnPath1093" d="M12.0 3.8990363547948754L0.0 7.798072709589751V0.0Z" stroke="#323232" stroke-width="2.0" fill="#323232" transform="matrix(1.0,0.0,0.0,1.0,0.0,0.0)"/></marker><marker id="ProcessOnMarker1110" markerUnits="userSpaceOnUse" orient="auto" markerWidth="16.23606797749979" markerHeight="10.550836550532098" viewBox="-1.0 -1.3763819204711736 16.23606797749979 10.550836550532098" refX="-1.0" refY="3.8990363547948754"><path id="ProcessOnPath1111" d="M12.0 3.8990363547948754L0.0 7.798072709589751V0.0Z" stroke="#323232" stroke-width="2.0" fill="#323232" transform="matrix(1.0,0.0,0.0,1.0,0.0,0.0)"/></marker><marker id="ProcessOnMarker1119" markerUnits="userSpaceOnUse" orient="auto" markerWidth="16.23606797749979" markerHeight="10.550836550532098" viewBox="-1.0 -1.3763819204711736 16.23606797749979 10.550836550532098" refX="-1.0" refY="3.8990363547948754"><path id="ProcessOnPath1120" d="M12.0 3.8990363547948754L0.0 7.798072709589751V0.0Z" stroke="#323232" stroke-width="2.0" fill="#323232" transform="matrix(1.0,0.0,0.0,1.0,0.0,0.0)"/></marker><marker id="ProcessOnMarker1127" markerUnits="userSpaceOnUse" orient="auto" markerWidth="16.23606797749979" markerHeight="10.550836550532098" viewBox="-1.0 -1.3763819204711736 16.23606797749979 10.550836550532098" refX="-1.0" refY="3.8990363547948754"><path id="ProcessOnPath1128" d="M12.0 3.8990363547948754L0.0 7.798072709589751V0.0Z" stroke="#323232" stroke-width="2.0" fill="#323232" transform="matrix(1.0,0.0,0.0,1.0,0.0,0.0)"/></marker><marker id="ProcessOnMarker1140" markerUnits="userSpaceOnUse" orient="auto" markerWidth="16.23606797749979" markerHeight="10.550836550532098" viewBox="-1.0 -1.3763819204711736 16.23606797749979 10.550836550532098" refX="-1.0" refY="3.8990363547948754"><path id="ProcessOnPath1141" d="M12.0 3.8990363547948754L0.0 7.798072709589751V0.0Z" stroke="#323232" stroke-width="2.0" fill="#323232" transform="matrix(1.0,0.0,0.0,1.0,0.0,0.0)"/></marker><marker id="ProcessOnMarker1144" markerUnits="userSpaceOnUse" orient="auto" markerWidth="16.23606797749979" markerHeight="10.550836550532098" viewBox="-1.0 -1.3763819204711736 16.23606797749979 10.550836550532098" refX="-1.0" refY="3.8990363547948754"><path id="ProcessOnPath1145" d="M12.0 3.8990363547948754L0.0 7.798072709589751V0.0Z" stroke="#323232" stroke-width="2.0" fill="#323232" transform="matrix(1.0,0.0,0.0,1.0,0.0,0.0)"/></marker><marker id="ProcessOnMarker1153" markerUnits="userSpaceOnUse" orient="auto" markerWidth="16.23606797749979" markerHeight="10.550836550532098" viewBox="-1.0 -1.3763819204711736 16.23606797749979 10.550836550532098" refX="-1.0" refY="3.8990363547948754"><path id="ProcessOnPath1154" d="M12.0 3.8990363547948754L0.0 7.798072709589751V0.0Z" stroke="#323232" stroke-width="2.0" fill="#323232" transform="matrix(1.0,0.0,0.0,1.0,0.0,0.0)"/></marker><marker id="ProcessOnMarker1161" markerUnits="userSpaceOnUse" orient="auto" markerWidth="16.23606797749979" markerHeight="10.550836550532098" viewBox="-1.0 -1.3763819204711736 16.23606797749979 10.550836550532098" refX="-1.0" refY="3.8990363547948754"><path id="ProcessOnPath1162" d="M12.0 3.8990363547948754L0.0 7.798072709589751V0.0Z" stroke="#323232" stroke-width="2.0" fill="#323232" transform="matrix(1.0,0.0,0.0,1.0,0.0,0.0)"/></marker><marker id="ProcessOnMarker1165" markerUnits="userSpaceOnUse" orient="auto" markerWidth="16.23606797749979" markerHeight="10.550836550532098" viewBox="-1.0 -1.3763819204711736 16.23606797749979 10.550836550532098" refX="-1.0" refY="3.8990363547948754"><path id="ProcessOnPath1166" d="M12.0 3.8990363547948754L0.0 7.798072709589751V0.0Z" stroke="#323232" stroke-width="2.0" fill="#323232" transform="matrix(1.0,0.0,0.0,1.0,0.0,0.0)"/></marker></defs><g id="ProcessOnG1002"><path id="ProcessOnPath1003" d="M235.0 16.0H723.0V1709.0H235.0V16.0Z" fill="none"/><g id="ProcessOnG1004"><g id="ProcessOnG1005" transform="matrix(1.0,0.0,0.0,1.0,444.0,36.0)" opacity="1.0"><path id="ProcessOnPath1006" d="M0.0 35.0C0.0 -11.666666666666666 70.0 -11.666666666666666 70.0 35.0C70.0 81.66666666666667 0.0 81.66666666666667 0.0 35.0Z" stroke="#323232" stroke-width="2.0" stroke-dasharray="none" fill="#ffff66"/><g id="ProcessOnG1007" transform="matrix(1.0,0.0,0.0,1.0,10.0,18.75)"><text id="ProcessOnText1008" fill="#323232" font-size="13" x="24.0" y="13.325" font-family="Arial" font-weight="bold" font-style="normal" text-decoration="none" family="Arial" text-anchor="middle" size="13">初始化be</text><text id="ProcessOnText1009" fill="#323232" font-size="13" x="24.0" y="29.575" font-family="Arial" font-weight="bold" font-style="normal" text-decoration="none" family="Arial" text-anchor="middle" size="13">an</text></g></g><g id="ProcessOnG1010" transform="matrix(1.0,0.0,0.0,1.0,354.75,145.0)" opacity="1.0"><path id="ProcessOnPath1011" d="M16.666666666666668 0.0L231.83333333333334 0.0C254.05555555555554 0.0 254.05555555555554 50.0 231.83333333333334 50.0L16.666666666666668 50.0C-5.555555555555556 50.0 -5.555555555555556 0.0 16.666666666666668 0.0Z" stroke="#323232" stroke-width="2.0" stroke-dasharray="none" fill="#c0d4a3"/><g id="ProcessOnG1012" transform="matrix(1.0,0.0,0.0,1.0,10.0,8.75)"><text id="ProcessOnText1013" fill="#323232" font-size="13" x="113.25" y="13.325" font-family="Arial" font-weight="bold" font-style="normal" text-decoration="none" family="Arial" text-anchor="middle" size="13">根据名称(bean在容器中是惟一的)从beanFact</text><text id="ProcessOnText1014" fill="#323232" font-size="13" x="113.25" y="29.575" font-family="Arial" font-weight="bold" font-style="normal" text-decoration="none" family="Arial" text-anchor="middle" size="13">ory获取BeanDefinition</text></g></g><g id="ProcessOnG1015"><path id="ProcessOnPath1016" d="M479.0 106.0L479.0 125.5L479.0 125.5L479.0 129.7639320225002" stroke="#323232" stroke-width="2.0" stroke-dasharray="none" fill="none" marker-end="url(#ProcessOnMarker1017)"/></g><g id="ProcessOnG1019"><path id="ProcessOnPath1020" d="M479.0 195.0L479.0 212.5L479.0 212.5L479.0 214.7639320225002" stroke="#323232" stroke-width="2.0" stroke-dasharray="none" fill="none" marker-end="url(#ProcessOnMarker1021)"/></g><g id="ProcessOnG1023" transform="matrix(1.0,0.0,0.0,1.0,415.0,230.0)" opacity="1.0"><path id="ProcessOnPath1024" d="M0.0 0.0L128.0 0.0L128.0 53.0L0.0 53.0Z" stroke="#323232" stroke-width="2.0" stroke-dasharray="none" fill="#ffff66"/><g id="ProcessOnG1025" transform="matrix(1.0,0.0,0.0,1.0,10.0,10.25)"><text id="ProcessOnText1026" fill="#323232" font-size="13" x="53.0" y="13.325" font-family="Arial" font-weight="bold" font-style="normal" text-decoration="none" family="Arial" text-anchor="middle" size="13">执行bean构造函数构</text><text id="ProcessOnText1027" fill="#323232" font-size="13" x="53.0" y="29.575" font-family="Arial" font-weight="bold" font-style="normal" text-decoration="none" family="Arial" text-anchor="middle" size="13">建bean实例</text></g></g><g id="ProcessOnG1028"><path id="ProcessOnPath1029" d="M479.0 283.0L479.0 300.5L479.0 300.5L479.0 302.7639320225002" stroke="#323232" stroke-width="2.0" stroke-dasharray="none" fill="none" marker-end="url(#ProcessOnMarker1030)"/></g><g id="ProcessOnG1032" transform="matrix(1.0,0.0,0.0,1.0,388.0,318.0)" opacity="1.0"><path id="ProcessOnPath1033" d="M0.0 0.0L182.0 0.0L182.0 52.0L0.0 52.0Z" stroke="#323232" stroke-width="2.0" stroke-dasharray="none" fill="#c0d4a3"/><g id="ProcessOnG1034" transform="matrix(1.0,0.0,0.0,1.0,10.0,9.75)"><text id="ProcessOnText1035" fill="#323232" font-size="13" x="80.0" y="13.325" font-family="Arial" font-weight="bold" font-style="normal" text-decoration="none" family="Arial" text-anchor="middle" size="13">根据BeanDefinition中bean的</text><text id="ProcessOnText1036" fill="#323232" font-size="13" x="80.0" y="29.575" font-family="Arial" font-weight="bold" font-style="normal" text-decoration="none" family="Arial" text-anchor="middle" size="13">配置构建BeanWrapper</text></g></g><g id="ProcessOnG1037"><path id="ProcessOnPath1038" d="M479.0 370.0L479.0 390.5L479.0 390.5L479.0 395.7639320225002" stroke="#323232" stroke-width="2.0" stroke-dasharray="none" fill="none" marker-end="url(#ProcessOnMarker1039)"/></g><g id="ProcessOnG1041" transform="matrix(1.0,0.0,0.0,1.0,329.0,411.0)" opacity="1.0"><path id="ProcessOnPath1042" d="M0.0 0.0L300.0 0.0L300.0 47.0L0.0 47.0Z" stroke="#323232" stroke-width="2.0" stroke-dasharray="none" fill="#c0d4a3"/><g id="ProcessOnG1043" transform="matrix(1.0,0.0,0.0,1.0,10.0,7.25)"><text id="ProcessOnText1044" fill="#323232" font-size="13" x="139.0" y="13.325" font-family="Arial" font-weight="bold" font-style="normal" text-decoration="none" family="Arial" text-anchor="middle" size="13">执行MergedBeanDefinitionPostProcessor的postP</text><text id="ProcessOnText1045" fill="#323232" font-size="13" x="139.0" y="29.575" font-family="Arial" font-weight="bold" font-style="normal" text-decoration="none" family="Arial" text-anchor="middle" size="13">rocessMergedBeanDefinition方法</text></g></g><g id="ProcessOnG1046"><path id="ProcessOnPath1047" d="M479.0 458.0L479.0 478.0L479.0 478.0L479.0 482.7639320225002" stroke="#323232" stroke-width="2.0" stroke-dasharray="none" fill="none" marker-end="url(#ProcessOnMarker1048)"/></g><g id="ProcessOnG1050" transform="matrix(1.0,0.0,0.0,1.0,331.5,498.0)" opacity="1.0"><path id="ProcessOnPath1051" d="M0.0 0.0L295.0 0.0L295.0 43.0L0.0 43.0Z" stroke="#323232" stroke-width="2.0" stroke-dasharray="none" fill="#c0d4a3"/><g id="ProcessOnG1052" transform="matrix(1.0,0.0,0.0,1.0,10.0,5.25)"><text id="ProcessOnText1053" fill="#323232" font-size="13" x="136.5" y="13.325" font-family="Arial" font-weight="bold" font-style="normal" text-decoration="none" family="Arial" text-anchor="middle" size="13">执行InstantiationAwareBeanPostProcessor的pos</text><text id="ProcessOnText1054" fill="#323232" font-size="13" x="136.5" y="29.575" font-family="Arial" font-weight="bold" font-style="normal" text-decoration="none" family="Arial" text-anchor="middle" size="13">tProcessBeforeInstantiation方法</text></g></g><g id="ProcessOnG1055"><path id="ProcessOnPath1056" d="M479.0 541.0L479.0 563.0L479.0 563.0L479.0 569.7639320225002" stroke="#323232" stroke-width="2.0" stroke-dasharray="none" fill="none" marker-end="url(#ProcessOnMarker1057)"/></g><g id="ProcessOnG1059" transform="matrix(1.0,0.0,0.0,1.0,335.5,585.0)" opacity="1.0"><path id="ProcessOnPath1060" d="M0.0 0.0L287.0 0.0L287.0 45.0L0.0 45.0Z" stroke="#323232" stroke-width="2.0" stroke-dasharray="none" fill="#c0d4a3"/><g id="ProcessOnG1061" transform="matrix(1.0,0.0,0.0,1.0,10.0,6.25)"><text id="ProcessOnText1062" fill="#323232" font-size="13" x="132.5" y="13.325" font-family="Arial" font-weight="bold" font-style="normal" text-decoration="none" family="Arial" text-anchor="middle" size="13">执行postProcessBeforeInstantiation的</text><text id="ProcessOnText1063" fill="#323232" font-size="13" x="132.5" y="29.575" font-family="Arial" font-weight="bold" font-style="normal" text-decoration="none" family="Arial" text-anchor="middle" size="13">postProcessPropertyValues方法</text></g></g><g id="ProcessOnG1064"><path id="ProcessOnPath1065" d="M479.0 630.0L479.0 648.0L479.0 648.0L479.0 650.7639320225002" stroke="#323232" stroke-width="2.0" stroke-dasharray="none" fill="none" marker-end="url(#ProcessOnMarker1066)"/></g><g id="ProcessOnG1068" transform="matrix(1.0,0.0,0.0,1.0,420.0,666.0)" opacity="1.0"><path id="ProcessOnPath1069" d="M0.0 0.0L118.0 0.0L118.0 42.0L0.0 42.0Z" stroke="#323232" stroke-width="2.0" stroke-dasharray="none" fill="#ffff66"/><g id="ProcessOnG1070" transform="matrix(1.0,0.0,0.0,1.0,10.0,12.875)"><text id="ProcessOnText1071" fill="#000000" font-size="13" x="48.0" y="13.325" font-family="Arial" font-weight="bold" font-style="normal" text-decoration="none" family="Arial" text-anchor="middle" size="13">为bean注入属性</text></g></g><g id="ProcessOnG1072"><path id="ProcessOnPath1073" d="M479.0 708.0L479.0 728.5L479.0 728.5L479.0 733.7639320225002" stroke="#323232" stroke-width="2.0" stroke-dasharray="none" fill="none" marker-end="url(#ProcessOnMarker1074)"/></g><g id="ProcessOnG1076" transform="matrix(1.0,0.0,0.0,1.0,255.0,749.0)" opacity="1.0"><path id="ProcessOnPath1077" d="M0.0 0.0L448.0 0.0L448.0 46.0L0.0 46.0Z" stroke="#323232" stroke-width="2.0" stroke-dasharray="none" fill="#c0d4a3"/><g id="ProcessOnG1078" transform="matrix(1.0,0.0,0.0,1.0,10.0,6.75)"><text id="ProcessOnText1079" fill="#323232" font-size="13" x="213.0" y="13.325" font-family="Arial" font-weight="bold" font-style="normal" text-decoration="none" family="Arial" text-anchor="middle" size="13">执行bean实现的Aware接口顺序</text><text id="ProcessOnText1080" fill="#323232" font-size="13" x="213.0" y="29.575" font-family="Arial" font-weight="bold" font-style="normal" text-decoration="none" family="Arial" text-anchor="middle" size="13">BeanNameAware-&gt;BeanClassLoaderAware-&gt;BeanFactoryAware</text></g></g><g id="ProcessOnG1081"><path id="ProcessOnPath1082" d="M479.0 795.0L479.0 817.0L479.0 817.0L479.0 823.7639320225002" stroke="#323232" stroke-width="2.0" stroke-dasharray="none" fill="none" marker-end="url(#ProcessOnMarker1083)"/></g><g id="ProcessOnG1085" transform="matrix(1.0,0.0,0.0,1.0,368.5,839.0)" opacity="1.0"><path id="ProcessOnPath1086" d="M0.0 0.0L221.0 0.0L221.0 49.0L0.0 49.0Z" stroke="#323232" stroke-width="2.0" stroke-dasharray="none" fill="#c0d4a3"/><g id="ProcessOnG1087" transform="matrix(1.0,0.0,0.0,1.0,10.0,8.25)"><text id="ProcessOnText1088" fill="#323232" font-size="13" x="99.5" y="13.325" font-family="Arial" font-weight="bold" font-style="normal" text-decoration="none" family="Arial" text-anchor="middle" size="13">执行 BeanPostProcessor的postPro</text><text id="ProcessOnText1089" fill="#323232" font-size="13" x="99.5" y="29.575" font-family="Arial" font-weight="bold" font-style="normal" text-decoration="none" family="Arial" text-anchor="middle" size="13">cessBeforeInitialization</text></g></g><g id="ProcessOnG1090"><path id="ProcessOnPath1091" d="M479.0 888.0L479.0 906.0L479.0 906.0L479.0 908.7639320225002" stroke="#323232" stroke-width="2.0" stroke-dasharray="none" fill="none" marker-end="url(#ProcessOnMarker1092)"/></g><g id="ProcessOnG1094" transform="matrix(1.0,0.0,0.0,1.0,389.0,924.0)" opacity="1.0"><path id="ProcessOnPath1095" d="M0.0 0.0L180.0 0.0L180.0 49.0L0.0 49.0Z" stroke="#323232" stroke-width="2.0" stroke-dasharray="none" fill="#c0d4a3"/><g id="ProcessOnG1096" transform="matrix(1.0,0.0,0.0,1.0,10.0,8.25)"><text id="ProcessOnText1097" fill="#323232" font-size="13" x="79.0" y="13.325" font-family="Arial" font-weight="bold" font-style="normal" text-decoration="none" family="Arial" text-anchor="middle" size="13">执行InitializingBean的afterPr</text><text id="ProcessOnText1098" fill="#323232" font-size="13" x="79.0" y="29.575" font-family="Arial" font-weight="bold" font-style="normal" text-decoration="none" family="Arial" text-anchor="middle" size="13">opertiesSet</text></g></g><g id="ProcessOnG1099" transform="matrix(1.0,0.0,0.0,1.0,363.96875,1007.0)" opacity="1.0"><path id="ProcessOnPath1100" d="M0.0 0.0L230.0625 0.0L230.0625 40.0L0.0 40.0Z" stroke="#323232" stroke-width="2.0" stroke-dasharray="none" fill="#c0d4a3"/><g id="ProcessOnG1101" transform="matrix(1.0,0.0,0.0,1.0,10.0,11.875)"><text id="ProcessOnText1102" fill="#323232" font-size="13" x="104.03125" y="13.325" font-family="Arial" font-weight="bold" font-style="normal" text-decoration="none" family="Arial" text-anchor="middle" size="13">执行bean配置的init-method方法</text></g></g><g id="ProcessOnG1103" transform="matrix(1.0,0.0,0.0,1.0,373.125,1087.0)" opacity="1.0"><path id="ProcessOnPath1104" d="M0.0 0.0L211.75 0.0L211.75 55.0L0.0 55.0Z" stroke="#323232" stroke-width="2.0" stroke-dasharray="none" fill="#c0d4a3"/><g id="ProcessOnG1105" transform="matrix(1.0,0.0,0.0,1.0,10.0,11.25)"><text id="ProcessOnText1106" fill="#323232" font-size="13" x="94.875" y="13.325" font-family="Arial" font-weight="bold" font-style="normal" text-decoration="none" family="Arial" text-anchor="middle" size="13">执行BeanPostProcessor的postPr</text><text id="ProcessOnText1107" fill="#323232" font-size="13" x="94.875" y="29.575" font-family="Arial" font-weight="bold" font-style="normal" text-decoration="none" family="Arial" text-anchor="middle" size="13">ocessAfterInitialization</text></g></g><g id="ProcessOnG1108"><path id="ProcessOnPath1109" d="M479.0 1142.0L479.0 1163.0L479.0 1163.0L479.0 1168.7639320225003" stroke="#323232" stroke-width="2.0" stroke-dasharray="none" fill="none" marker-end="url(#ProcessOnMarker1110)"/></g><g id="ProcessOnG1112" transform="matrix(1.0,0.0,0.0,1.0,324.125,1184.0)" opacity="1.0"><path id="ProcessOnPath1113" d="M0.0 0.0L309.75 0.0L309.75 58.0L0.0 58.0Z" stroke="#323232" stroke-width="2.0" stroke-dasharray="none" fill="#c0d4a3"/><g id="ProcessOnG1114" transform="matrix(1.0,0.0,0.0,1.0,10.0,12.75)"><text id="ProcessOnText1115" fill="#323232" font-size="13" x="143.875" y="13.325" font-family="Arial" font-weight="bold" font-style="normal" text-decoration="none" family="Arial" text-anchor="middle" size="13">执行InstantiationAwareBeanPostProcessor的postP</text><text id="ProcessOnText1116" fill="#323232" font-size="13" x="143.875" y="29.575" font-family="Arial" font-weight="bold" font-style="normal" text-decoration="none" family="Arial" text-anchor="middle" size="13">rocessAfterInstantiation方法</text></g></g><g id="ProcessOnG1117"><path id="ProcessOnPath1118" d="M479.0 1242.0L479.0 1255.0L479.0 1255.0L479.0 1256.0" stroke="#323232" stroke-width="2.0" stroke-dasharray="none" fill="none" marker-end="url(#ProcessOnMarker1119)"/></g><g id="ProcessOnG1121" transform="matrix(1.0,0.0,0.0,1.0,421.125,1268.0)" opacity="1.0"><path id="ProcessOnPath1122" d="M0.0 0.0L115.75 0.0L115.75 45.0L0.0 45.0Z" stroke="#323232" stroke-width="2.0" stroke-dasharray="none" fill="#ffff66"/><g id="ProcessOnG1123" transform="matrix(1.0,0.0,0.0,1.0,10.0,14.375)"><text id="ProcessOnText1124" fill="#323232" font-size="13" x="46.875" y="13.325" font-family="Arial" font-weight="bold" font-style="normal" text-decoration="none" family="Arial" text-anchor="middle" size="13">bean业务处理...</text></g></g><g id="ProcessOnG1125"><path id="ProcessOnPath1126" d="M479.0 1313.0L479.0 1330.5L479.0 1330.5L479.0 1332.7639320225003" stroke="#323232" stroke-width="2.0" stroke-dasharray="none" fill="none" marker-end="url(#ProcessOnMarker1127)"/></g><g id="ProcessOnG1129" transform="matrix(1.0,0.0,0.0,1.0,444.0,1348.0)" opacity="1.0"><path id="ProcessOnPath1130" d="M0.0 35.0C0.0 -11.666666666666666 70.0 -11.666666666666666 70.0 35.0C70.0 81.66666666666667 0.0 81.66666666666667 0.0 35.0Z" stroke="#323232" stroke-width="2.0" stroke-dasharray="none" fill="#ffff66"/><g id="ProcessOnG1131" transform="matrix(1.0,0.0,0.0,1.0,10.0,26.875)"><text id="ProcessOnText1132" fill="#323232" font-size="13" x="24.0" y="13.325" font-family="Arial" font-weight="bold" font-style="normal" text-decoration="none" family="Arial" text-anchor="middle" size="13">bean销毁</text></g></g><g id="ProcessOnG1133" transform="matrix(1.0,0.0,0.0,1.0,322.125,1471.0)" opacity="1.0"><path id="ProcessOnPath1134" d="M16.0 0.0L297.75 0.0C319.0833333333333 0.0 319.0833333333333 48.0 297.75 48.0L16.0 48.0C-5.333333333333333 48.0 -5.333333333333333 0.0 16.0 0.0Z" stroke="#323232" stroke-width="2.0" stroke-dasharray="none" fill="#c0d4a3"/><g id="ProcessOnG1135" transform="matrix(1.0,0.0,0.0,1.0,10.0,7.75)"><text id="ProcessOnText1136" fill="#323232" font-size="13" x="145.875" y="13.325" font-family="Arial" font-weight="bold" font-style="normal" text-decoration="none" family="Arial" text-anchor="middle" size="13">执行DestructionAwareBeanPostProcessor的</text><text id="ProcessOnText1137" fill="#323232" font-size="13" x="145.875" y="29.575" font-family="Arial" font-weight="bold" font-style="normal" text-decoration="none" family="Arial" text-anchor="middle" size="13">postProcessBeforeDestruction方法</text></g></g><g id="ProcessOnG1138"><path id="ProcessOnPath1139" d="M479.0 1418.0L479.0 1444.5L479.0 1444.5L479.0 1455.7639320225003" stroke="#323232" stroke-width="2.0" stroke-dasharray="none" fill="none" marker-end="url(#ProcessOnMarker1140)"/></g><g id="ProcessOnG1142"><path id="ProcessOnPath1143" d="M479.0 1519.0L479.0 1543.0L479.0 1543.0L479.0 1551.7639320225003" stroke="#323232" stroke-width="2.0" stroke-dasharray="none" fill="none" marker-end="url(#ProcessOnMarker1144)"/></g><g id="ProcessOnG1146" transform="matrix(1.0,0.0,0.0,1.0,393.0,1567.0)" opacity="1.0"><path id="ProcessOnPath1147" d="M0.0 0.0L172.0 0.0L172.0 48.0L0.0 48.0Z" stroke="#323232" stroke-width="2.0" stroke-dasharray="none" fill="#c0d4a3"/><g id="ProcessOnG1148" transform="matrix(1.0,0.0,0.0,1.0,10.0,7.75)"><text id="ProcessOnText1149" fill="#323232" font-size="13" x="75.0" y="13.325" font-family="Arial" font-weight="bold" font-style="normal" text-decoration="none" family="Arial" text-anchor="middle" size="13">执行DisposableBean的dest</text><text id="ProcessOnText1150" fill="#323232" font-size="13" x="75.0" y="29.575" font-family="Arial" font-weight="bold" font-style="normal" text-decoration="none" family="Arial" text-anchor="middle" size="13">roy方法</text></g></g><g id="ProcessOnG1151"><path id="ProcessOnPath1152" d="M479.0 1615.0L479.0 1633.0L479.0 1633.0L479.0 1635.7639320225003" stroke="#323232" stroke-width="2.0" stroke-dasharray="none" fill="none" marker-end="url(#ProcessOnMarker1153)"/></g><g id="ProcessOnG1155" transform="matrix(1.0,0.0,0.0,1.0,372.125,1651.0)" opacity="1.0"><path id="ProcessOnPath1156" d="M0.0 0.0L213.75 0.0L213.75 38.0L0.0 38.0Z" stroke="#323232" stroke-width="2.0" stroke-dasharray="none" fill="#c0d4a3"/><g id="ProcessOnG1157" transform="matrix(1.0,0.0,0.0,1.0,10.0,10.875)"><text id="ProcessOnText1158" fill="#323232" font-size="13" x="95.875" y="13.325" font-family="Arial" font-weight="bold" font-style="normal" text-decoration="none" family="Arial" text-anchor="middle" size="13">执行配置的destroy-method方法</text></g></g><g id="ProcessOnG1159"><path id="ProcessOnPath1160" d="M479.0 973.0L479.0 990.0L479.0 990.0L479.0 991.7639320225002" stroke="#323232" stroke-width="2.0" stroke-dasharray="none" fill="none" marker-end="url(#ProcessOnMarker1161)"/></g><g id="ProcessOnG1163"><path id="ProcessOnPath1164" d="M479.0 1047.0L479.0 1067.0L479.0 1067.0L479.0 1071.7639320225003" stroke="#323232" stroke-width="2.0" stroke-dasharray="none" fill="none" marker-end="url(#ProcessOnMarker1165)"/></g></g></g></svg>